<?xml version="1.0" encoding="UTF-8" standalone="no"?><!DOCTYPE svg PUBLIC "-//W3C//DTD SVG 1.1//EN" "http://www.w3.org/Graphics/SVG/1.1/DTD/svg11.dtd"><svg width="100%" height="100%" viewBox="0 0 466 467" version="1.1" xmlns="http://www.w3.org/2000/svg" xmlns:xlink="http://www.w3.org/1999/xlink" xml:space="preserve" xmlns:serif="http://www.serif.com/" style="fill-rule:evenodd;clip-rule:evenodd;stroke-linejoin:round;stroke-miterlimit:2;"><g><path d="M162.642,185.367c-0,-5.388 -4.371,-9.759 -9.759,-9.759l-143.125,0c-5.387,0 -9.758,4.371 -9.758,9.759l0,271.325c0,5.383 4.371,9.758 9.758,9.758l143.125,0c5.388,0 9.759,-4.375 9.759,-9.758l-0,-271.325Z" style="fill:#6e6e6e;"/><circle cx="81.321" cy="446.992" r="12.075" style="fill:#333;"/><rect x="11.571" y="193.317" width="139.9" height="234.213" style="fill:#a2aecb;"/></g><g><path d="M447.954,178.379l-181.829,0l-89.021,55.309l34.209,-55.309l-16.371,0c-9.846,0 -17.838,-7.996 -17.838,-17.837l0,-142.705c0,-9.845 7.992,-17.837 17.838,-17.837l253.012,0c9.846,0 17.838,7.992 17.838,17.838l-0,142.704c-0,9.841 -7.992,17.837 -17.838,17.837Z" style="fill:#acde9b;"/><path d="M409.842,33.233c-0,-1.291 -1.05,-2.341 -2.342,-2.341l-175.346,-0c-1.291,-0 -2.341,1.05 -2.341,2.341l-0,112.296c-0,1.292 1.05,2.342 2.341,2.342l175.346,-0c1.292,-0 2.342,-1.05 2.342,-2.342l-0,-112.296Z" style="fill:#fff;"/><rect x="237.813" y="128.938" width="74.542" height="12.229"/><rect x="315.813" y="39.758" width="84.825" height="84.825" style="fill:#bdbdbd;"/><rect x="237.813" y="39.758" width="74.542" height="40.237" style="fill:#dbdbdb;"/><rect x="237.813" y="84.346" width="74.542" height="40.238" style="fill:#d4d4d4;"/></g></svg>