<?xml version="1.0" encoding="UTF-8" standalone="no"?><!DOCTYPE svg PUBLIC "-//W3C//DTD SVG 1.1//EN" "http://www.w3.org/Graphics/SVG/1.1/DTD/svg11.dtd"><svg width="100%" height="100%" viewBox="0 0 112 112" version="1.1" xmlns="http://www.w3.org/2000/svg" xmlns:xlink="http://www.w3.org/1999/xlink" xml:space="preserve" xmlns:serif="http://www.serif.com/" style="fill-rule:evenodd;clip-rule:evenodd;stroke-linejoin:round;stroke-miterlimit:2;"><rect id="Prancheta1" x="-891.736" y="-181.403" width="1366" height="768" style="fill:none;"/><g id="Prancheta11" serif:id="Prancheta1"><g id="Projeto"><g><g><path d="M39.034,44.488c0,-1.293 -1.049,-2.342 -2.342,-2.342l-34.35,-0c-1.293,-0 -2.342,1.049 -2.342,2.342l0,65.118c0,1.292 1.049,2.342 2.342,2.342l34.35,-0c1.293,-0 2.342,-1.05 2.342,-2.342l0,-65.118Z" style="fill:#6e6e6e;"/><circle cx="19.517" cy="107.278" r="2.898" style="fill:#333;"/><rect x="2.777" y="46.396" width="33.576" height="56.211" style="fill:#a2aecb;"/></g><g><path d="M107.509,42.811l-43.639,-0l-21.365,13.274l8.21,-13.274l-3.929,-0c-2.363,-0 -4.281,-1.919 -4.281,-4.281l0,-34.249c0,-2.363 1.918,-4.281 4.281,-4.281l60.723,0c2.363,0 4.281,1.918 4.281,4.281l-0,34.249c-0,2.362 -1.918,4.281 -4.281,4.281Z" style="fill:#7fcc64;"/><path d="M98.362,7.976c-0,-0.31 -0.252,-0.562 -0.562,-0.562l-42.083,0c-0.31,0 -0.562,0.252 -0.562,0.562l0,26.951c0,0.31 0.252,0.562 0.562,0.562l42.083,-0c0.31,-0 0.562,-0.252 0.562,-0.562l-0,-26.951Z" style="fill:#fff;"/><rect x="57.075" y="30.945" width="17.89" height="2.935"/><rect x="75.795" y="9.542" width="20.358" height="20.358" style="fill:#bdbdbd;"/><rect x="57.075" y="9.542" width="17.89" height="9.657" style="fill:#dbdbdb;"/><rect x="57.075" y="20.243" width="17.89" height="9.657" style="fill:#d4d4d4;"/></g></g></g></g></svg>