<?xml version="1.0" encoding="UTF-8" standalone="no"?><!DOCTYPE svg PUBLIC "-//W3C//DTD SVG 1.1//EN" "http://www.w3.org/Graphics/SVG/1.1/DTD/svg11.dtd"><svg width="100%" height="100%" viewBox="0 0 112 112" version="1.1" xmlns="http://www.w3.org/2000/svg" xmlns:xlink="http://www.w3.org/1999/xlink" xml:space="preserve" xmlns:serif="http://www.serif.com/" style="fill-rule:evenodd;clip-rule:evenodd;stroke-linejoin:round;stroke-miterlimit:2;"><g><g><path d="M44.364,24.272l-29.782,0l-14.582,7.526l5.603,-7.526l-2.681,0c-1.613,0 -2.922,-1.087 -2.922,-2.427l-0,-19.418c-0,-1.339 1.309,-2.427 2.922,-2.427l41.442,-0c1.613,-0 2.922,1.088 2.922,2.427l0,19.418c0,1.34 -1.309,2.427 -2.922,2.427Z" style="fill:#d1dacd;"/><text x="10.84px" y="13.853px" style="font-family:'Montserrat-Regular', 'Montserrat';font-size:40.197px;fill:#5d71a2;">...</text></g><g><path d="M44.364,64.189l-29.782,-0l-14.582,7.526l5.603,-7.526l-2.681,-0c-1.613,-0 -2.922,-1.088 -2.922,-2.427l-0,-19.418c-0,-1.34 1.309,-2.427 2.922,-2.427l41.442,-0c1.613,-0 2.922,1.087 2.922,2.427l0,19.418c0,1.339 -1.309,2.427 -2.922,2.427Z" style="fill:#d1dacd;"/><text x="10.84px" y="53.77px" style="font-family:'Montserrat-Regular', 'Montserrat';font-size:40.197px;fill:#5d71a2;">...</text></g><g><path d="M44.364,104.105l-29.782,0l-14.582,7.527l5.603,-7.527l-2.681,0c-1.613,0 -2.922,-1.087 -2.922,-2.427l-0,-19.417c-0,-1.34 1.309,-2.428 2.922,-2.428l41.442,0c1.613,0 2.922,1.088 2.922,2.428l0,19.417c0,1.34 -1.309,2.427 -2.922,2.427Z" style="fill:#d1dacd;"/><g><g opacity="0.25"><path d="M24.643,87.747c3.333,-0 6.04,5.614 6.04,8.948c-0,3.333 -2.707,3.131 -6.04,3.131c-3.333,0 -6.04,0.202 -6.04,-3.131c0,-3.334 2.707,-8.948 6.04,-8.948Z" style="fill:#5d71a2;"/><path d="M24.643,90.193c-1.412,-0 -2.559,-2.379 -2.559,-3.792c-0,-1.412 1.147,-1.327 2.559,-1.327c1.413,0 2.559,-0.085 2.559,1.327c0,1.413 -1.146,3.792 -2.559,3.792Z" style="fill:#5d71a2;"/></g><path d="M23.643,87.067c3.333,-0 6.04,5.614 6.04,8.947c-0,3.334 -2.707,3.132 -6.04,3.132c-3.333,-0 -6.04,0.202 -6.04,-3.132c0,-3.333 2.707,-8.947 6.04,-8.947Z" style="fill:#f6ff7c;"/><path d="M23.643,89.512c-1.412,0 -2.559,-2.379 -2.559,-3.791c-0,-1.413 1.147,-1.327 2.559,-1.327c1.413,-0 2.559,-0.086 2.559,1.327c0,1.412 -1.146,3.791 -2.559,3.791Z" style="fill:#f6ff7c;"/><text x="21.557px" y="96.047px" style="font-family:'Montserrat-Bold', 'Montserrat';font-weight:700;font-size:6.196px;fill:#5d71a2;">$</text></g></g><g><path d="M67.475,40.171l29.792,0l14.586,7.526l-5.605,-7.526l2.682,0c1.613,0 2.923,-1.087 2.923,-2.427l-0,-19.418c-0,-1.339 -1.31,-2.427 -2.923,-2.427l-41.455,0c-1.613,0 -2.922,1.088 -2.922,2.427l-0,19.418c-0,1.34 1.309,2.427 2.922,2.427Z" style="fill:#c4f5b2;"/><g transform="matrix(-1,0,0,1,3955.43,0)"><text x="3854.43px" y="29.753px" style="font-family:'Montserrat-Regular', 'Montserrat';font-size:40.197px;fill:#93c196;">...</text></g></g><g><path d="M67.475,80.088l29.792,-0l14.586,7.526l-5.605,-7.526l2.682,-0c1.613,-0 2.923,-1.088 2.923,-2.427l-0,-19.418c-0,-1.34 -1.31,-2.427 -2.923,-2.427l-41.455,-0c-1.613,-0 -2.922,1.087 -2.922,2.427l-0,19.418c-0,1.339 1.309,2.427 2.922,2.427Z" style="fill:#c4f5b2;"/><g transform="matrix(-1,0,0,1,3955.43,0)"><text x="3854.43px" y="69.669px" style="font-family:'Montserrat-Regular', 'Montserrat';font-size:40.197px;fill:#93c196;">...</text></g></g></g></svg>