<?xml version="1.0" encoding="UTF-8" standalone="no"?><!DOCTYPE svg PUBLIC "-//W3C//DTD SVG 1.1//EN" "http://www.w3.org/Graphics/SVG/1.1/DTD/svg11.dtd"><svg width="100%" height="100%" viewBox="0 0 467 466" version="1.1" xmlns="http://www.w3.org/2000/svg" xmlns:xlink="http://www.w3.org/1999/xlink" xml:space="preserve" xmlns:serif="http://www.serif.com/" style="fill-rule:evenodd;clip-rule:evenodd;stroke-linejoin:round;stroke-miterlimit:2;"><g><g><path d="M184.85,101.133l-124.092,0l-60.758,31.359l23.346,-31.359l-11.171,0c-6.721,0 -12.175,-4.529 -12.175,-10.112l0,-80.908c0,-5.58 5.454,-10.113 12.175,-10.113l172.675,0c6.721,0 12.175,4.533 12.175,10.113l0,80.908c0,5.583 -5.454,10.112 -12.175,10.112Z" style="fill:#d1dacd;"/><g><path d="M62.921,58.558c-2.456,0 -4.55,-0.893 -6.28,-2.68c-1.731,-1.786 -2.596,-3.963 -2.596,-6.532c-0,-2.568 0.865,-4.717 2.596,-6.448c1.73,-1.731 3.824,-2.596 6.28,-2.596c2.457,0 4.578,0.865 6.365,2.596c1.786,1.731 2.68,3.88 2.68,6.448c-0,2.569 -0.894,4.746 -2.68,6.532c-1.787,1.787 -3.908,2.68 -6.365,2.68Z" style="fill:#5d71a2;fill-rule:nonzero;"/><path d="M98.429,58.558c-2.457,0 -4.55,-0.893 -6.281,-2.68c-1.731,-1.786 -2.596,-3.963 -2.596,-6.532c-0,-2.568 0.865,-4.717 2.596,-6.448c1.731,-1.731 3.824,-2.596 6.281,-2.596c2.456,0 4.578,0.865 6.364,2.596c1.787,1.731 2.68,3.88 2.68,6.448c0,2.569 -0.893,4.746 -2.68,6.532c-1.786,1.787 -3.908,2.68 -6.364,2.68Z" style="fill:#5d71a2;fill-rule:nonzero;"/><path d="M133.936,58.558c-2.456,0 -4.55,-0.893 -6.281,-2.68c-1.73,-1.786 -2.596,-3.963 -2.596,-6.532c0,-2.568 0.866,-4.717 2.596,-6.448c1.731,-1.731 3.825,-2.596 6.281,-2.596c2.457,0 4.578,0.865 6.365,2.596c1.786,1.731 2.679,3.88 2.679,6.448c0,2.569 -0.893,4.746 -2.679,6.532c-1.787,1.787 -3.908,2.68 -6.365,2.68Z" style="fill:#5d71a2;fill-rule:nonzero;"/></g></g><g><path d="M184.85,267.454l-124.092,0l-60.758,31.358l23.346,-31.358l-11.171,0c-6.721,0 -12.175,-4.533 -12.175,-10.112l0,-80.909c0,-5.583 5.454,-10.112 12.175,-10.112l172.675,-0c6.721,-0 12.175,4.529 12.175,10.112l0,80.909c0,5.579 -5.454,10.112 -12.175,10.112Z" style="fill:#d1dacd;"/><g><path d="M62.92,224.879c-2.456,0 -4.55,-0.893 -6.28,-2.68c-1.731,-1.786 -2.596,-3.964 -2.596,-6.532c-0,-2.568 0.865,-4.717 2.596,-6.448c1.73,-1.731 3.824,-2.596 6.28,-2.596c2.457,-0 4.578,0.865 6.365,2.596c1.786,1.731 2.68,3.88 2.68,6.448c-0,2.568 -0.894,4.746 -2.68,6.532c-1.787,1.787 -3.908,2.68 -6.365,2.68Z" style="fill:#5d71a2;fill-rule:nonzero;"/><path d="M98.428,224.879c-2.457,0 -4.55,-0.893 -6.281,-2.68c-1.731,-1.786 -2.596,-3.964 -2.596,-6.532c-0,-2.568 0.865,-4.717 2.596,-6.448c1.731,-1.731 3.824,-2.596 6.281,-2.596c2.456,-0 4.578,0.865 6.364,2.596c1.787,1.731 2.68,3.88 2.68,6.448c0,2.568 -0.893,4.746 -2.68,6.532c-1.786,1.787 -3.908,2.68 -6.364,2.68Z" style="fill:#5d71a2;fill-rule:nonzero;"/><path d="M133.935,224.879c-2.456,0 -4.55,-0.893 -6.281,-2.68c-1.73,-1.786 -2.596,-3.964 -2.596,-6.532c0,-2.568 0.866,-4.717 2.596,-6.448c1.731,-1.731 3.825,-2.596 6.281,-2.596c2.457,-0 4.578,0.865 6.365,2.596c1.786,1.731 2.679,3.88 2.679,6.448c0,2.568 -0.893,4.746 -2.679,6.532c-1.787,1.787 -3.908,2.68 -6.365,2.68Z" style="fill:#5d71a2;fill-rule:nonzero;"/></g></g><g><path d="M184.85,433.771l-124.092,-0l-60.758,31.362l23.346,-31.362l-11.171,-0c-6.721,-0 -12.175,-4.529 -12.175,-10.113l0,-80.904c0,-5.583 5.454,-10.117 12.175,-10.117l172.675,0c6.721,0 12.175,4.534 12.175,10.117l0,80.904c0,5.584 -5.454,10.113 -12.175,10.113Z" style="fill:#d1dacd;"/><g><g opacity="0.25"><path d="M102.679,365.613c13.888,-0 25.167,23.391 25.167,37.283c-0,13.887 -11.279,13.046 -25.167,13.046c-13.887,-0 -25.166,0.841 -25.166,-13.046c-0,-13.892 11.279,-37.284 25.166,-37.284Z" style="fill:#5d71a2;"/><path d="M102.679,375.804c-5.883,0 -10.662,-9.912 -10.662,-15.8c-0,-5.883 4.779,-5.529 10.662,-5.529c5.888,0 10.663,-0.354 10.663,5.529c-0,5.888 -4.775,15.8 -10.663,15.8Z" style="fill:#5d71a2;"/></g><path d="M98.513,362.779c13.887,0 25.166,23.392 25.166,37.279c0,13.892 -11.279,13.05 -25.166,13.05c-13.888,0 -25.167,0.842 -25.167,-13.05c-0,-13.887 11.279,-37.279 25.167,-37.279Z" style="fill:#f6ff7c;"/><path d="M98.513,372.967c-5.884,-0 -10.663,-9.913 -10.663,-15.796c0,-5.888 4.779,-5.529 10.663,-5.529c5.887,-0 10.662,-0.359 10.662,5.529c0,5.883 -4.775,15.796 -10.662,15.796Z" style="fill:#f6ff7c;"/><path d="M105.569,394.903c0,1.412 -0.516,2.621 -1.549,3.628c-1.033,1.007 -2.521,1.63 -4.466,1.871l-0,2.892l-2.582,-0l0,-2.814c-1.274,-0.069 -2.487,-0.293 -3.64,-0.671c-1.153,-0.379 -2.083,-0.844 -2.788,-1.395l1.42,-3.149c0.654,0.482 1.42,0.886 2.297,1.213c0.878,0.327 1.782,0.534 2.711,0.62l0,-4.312c-1.222,-0.292 -2.255,-0.619 -3.098,-0.981c-0.843,-0.361 -1.549,-0.89 -2.117,-1.587c-0.568,-0.697 -0.852,-1.622 -0.852,-2.776c0,-1.428 0.521,-2.654 1.562,-3.678c1.041,-1.025 2.543,-1.648 4.505,-1.872l0,-2.866l2.582,0l-0,2.814c2.117,0.172 3.864,0.697 5.241,1.575l-1.291,3.175c-1.291,-0.74 -2.608,-1.187 -3.95,-1.342l-0,4.389c1.204,0.275 2.224,0.589 3.059,0.942c0.835,0.353 1.536,0.878 2.104,1.575c0.568,0.697 0.852,1.613 0.852,2.749Zm-10.507,-7.667c-0,0.43 0.163,0.783 0.49,1.058c0.327,0.276 0.8,0.508 1.42,0.697l0,-3.666c-0.654,0.155 -1.136,0.401 -1.446,0.736c-0.309,0.336 -0.464,0.727 -0.464,1.175Zm4.492,9.759c0.619,-0.138 1.084,-0.362 1.394,-0.672c0.31,-0.309 0.465,-0.68 0.465,-1.11c-0,-0.43 -0.16,-0.783 -0.478,-1.058c-0.318,-0.276 -0.779,-0.517 -1.381,-0.723l-0,3.563Z" style="fill:#5d71a2;fill-rule:nonzero;"/></g></g><g><path d="M281.146,167.379l124.133,0l60.775,31.359l-23.354,-31.359l11.175,0c6.721,0 12.179,-4.529 12.179,-10.112l0,-80.909c0,-5.579 -5.458,-10.112 -12.179,-10.112l-172.729,-0c-6.721,-0 -12.175,4.533 -12.175,10.112l-0,80.909c-0,5.583 5.454,10.112 12.175,10.112Z" style="fill:#c4f5b2;"/><g><path d="M403.08,124.808c2.456,0 4.55,-0.893 6.28,-2.68c1.731,-1.786 2.596,-3.963 2.596,-6.532c0,-2.568 -0.865,-4.717 -2.596,-6.448c-1.73,-1.731 -3.824,-2.596 -6.28,-2.596c-2.457,0 -4.578,0.865 -6.365,2.596c-1.786,1.731 -2.68,3.88 -2.68,6.448c0,2.569 0.894,4.746 2.68,6.532c1.787,1.787 3.908,2.68 6.365,2.68Z" style="fill:#93c196;fill-rule:nonzero;"/><path d="M367.572,124.808c2.457,0 4.55,-0.893 6.281,-2.68c1.731,-1.786 2.596,-3.963 2.596,-6.532c0,-2.568 -0.865,-4.717 -2.596,-6.448c-1.731,-1.731 -3.824,-2.596 -6.281,-2.596c-2.456,0 -4.578,0.865 -6.364,2.596c-1.787,1.731 -2.68,3.88 -2.68,6.448c-0,2.569 0.893,4.746 2.68,6.532c1.786,1.787 3.908,2.68 6.364,2.68Z" style="fill:#93c196;fill-rule:nonzero;"/><path d="M332.065,124.808c2.456,0 4.55,-0.893 6.281,-2.68c1.73,-1.786 2.596,-3.963 2.596,-6.532c-0,-2.568 -0.866,-4.717 -2.596,-6.448c-1.731,-1.731 -3.825,-2.596 -6.281,-2.596c-2.457,0 -4.578,0.865 -6.365,2.596c-1.786,1.731 -2.679,3.88 -2.679,6.448c-0,2.569 0.893,4.746 2.679,6.532c1.787,1.787 3.908,2.68 6.365,2.68Z" style="fill:#93c196;fill-rule:nonzero;"/></g></g><g><path d="M281.146,333.7l124.133,0l60.775,31.358l-23.354,-31.358l11.175,0c6.721,0 12.179,-4.533 12.179,-10.113l0,-80.908c0,-5.583 -5.458,-10.112 -12.179,-10.112l-172.729,-0c-6.721,-0 -12.175,4.529 -12.175,10.112l-0,80.909c-0,5.579 5.454,10.112 12.175,10.112Z" style="fill:#c4f5b2;"/><g><path d="M403.08,291.125c2.456,-0 4.55,-0.893 6.28,-2.68c1.731,-1.786 2.596,-3.964 2.596,-6.532c0,-2.568 -0.865,-4.717 -2.596,-6.448c-1.73,-1.731 -3.824,-2.596 -6.28,-2.596c-2.457,-0 -4.578,0.865 -6.365,2.596c-1.786,1.731 -2.68,3.88 -2.68,6.448c0,2.568 0.894,4.746 2.68,6.532c1.787,1.787 3.908,2.68 6.365,2.68Z" style="fill:#93c196;fill-rule:nonzero;"/><path d="M367.572,291.125c2.457,-0 4.55,-0.893 6.281,-2.68c1.731,-1.786 2.596,-3.964 2.596,-6.532c0,-2.568 -0.865,-4.717 -2.596,-6.448c-1.731,-1.731 -3.824,-2.596 -6.281,-2.596c-2.456,-0 -4.578,0.865 -6.364,2.596c-1.787,1.731 -2.68,3.88 -2.68,6.448c-0,2.568 0.893,4.746 2.68,6.532c1.786,1.787 3.908,2.68 6.364,2.68Z" style="fill:#93c196;fill-rule:nonzero;"/><path d="M332.065,291.125c2.456,-0 4.55,-0.893 6.281,-2.68c1.73,-1.786 2.596,-3.964 2.596,-6.532c-0,-2.568 -0.866,-4.717 -2.596,-6.448c-1.731,-1.731 -3.825,-2.596 -6.281,-2.596c-2.457,-0 -4.578,0.865 -6.365,2.596c-1.786,1.731 -2.679,3.88 -2.679,6.448c-0,2.568 0.893,4.746 2.679,6.532c1.787,1.787 3.908,2.68 6.365,2.68Z" style="fill:#93c196;fill-rule:nonzero;"/></g></g></g></svg>