<?xml version="1.0" encoding="UTF-8" standalone="no"?><!DOCTYPE svg PUBLIC "-//W3C//DTD SVG 1.1//EN" "http://www.w3.org/Graphics/SVG/1.1/DTD/svg11.dtd"><svg width="100%" height="100%" viewBox="0 0 639 647" version="1.1" xmlns="http://www.w3.org/2000/svg" xmlns:xlink="http://www.w3.org/1999/xlink" xml:space="preserve" xmlns:serif="http://www.serif.com/" style="fill-rule:evenodd;clip-rule:evenodd;stroke-linejoin:round;stroke-miterlimit:2;"><rect x="0" y="4.168" width="638.021" height="638.021" style="fill:none;"/><path d="M234.113,149.477c-14.538,-29.571 -23.2,-62.371 -23.2,-87.896c-0,-61.075 49.583,-57.371 110.67,-57.371c61.075,0 110.659,-3.704 110.659,57.371c-0,25.525 -8.663,58.325 -23.2,87.896c101.179,69.154 173.683,243.746 173.683,357.212c0,144.129 -117.017,135.396 -261.142,135.396c-144.141,0 -261.15,8.733 -261.15,-135.396c0,-113.466 72.5,-288.058 173.679,-357.212Zm176.842,293.341c0,17.68 -6.471,32.825 -19.404,45.442c-12.942,12.613 -31.592,20.429 -55.954,23.446l-0,36.225l-32.346,-0l-0,-35.254c-15.954,-0.863 -31.158,-3.663 -45.604,-8.409c-14.446,-4.741 -26.092,-10.562 -34.929,-17.466l17.783,-39.459c8.196,6.042 17.792,11.105 28.787,15.2c11,4.1 22.317,6.688 33.963,7.767l-0,-54.012c-15.308,-3.671 -28.25,-7.767 -38.813,-12.296c-10.566,-4.525 -19.404,-11.159 -26.52,-19.888c-7.117,-8.733 -10.675,-20.321 -10.675,-34.771c-0,-17.9 6.52,-33.262 19.566,-46.091c13.046,-12.829 31.863,-20.642 56.442,-23.446l-0,-35.9l32.346,-0l-0,35.254c26.521,2.154 48.404,8.729 65.654,19.729l-16.171,39.779c-16.171,-9.27 -32.667,-14.879 -49.483,-16.812l-0,54.979c15.091,3.45 27.866,7.383 38.321,11.804c10.462,4.421 19.25,11 26.362,19.734c7.117,8.729 10.675,20.212 10.675,34.445Zm-75.358,26.2c7.758,-1.729 13.579,-4.533 17.462,-8.412c3.879,-3.883 5.825,-8.517 5.825,-13.908c0,-5.392 -2,-9.813 -5.987,-13.263c-3.988,-3.446 -9.759,-6.467 -17.3,-9.054l-0,44.637Zm-56.279,-122.262c-0,5.392 2.045,9.812 6.145,13.262c4.096,3.45 10.025,6.363 17.788,8.73l-0,-45.93c-8.192,1.942 -14.233,5.017 -18.113,9.221c-3.879,4.204 -5.82,9.113 -5.82,14.717Z" style="fill:url(#_Linear1);"/><defs><linearGradient id="_Linear1" x1="0" y1="0" x2="1" y2="0" gradientUnits="userSpaceOnUse" gradientTransform="matrix(4.13769e-14,675.737,-675.737,4.13769e-14,319.01,-110.574)"><stop offset="0" style="stop-color:#35793b;stop-opacity:1"/><stop offset="1" style="stop-color:#104815;stop-opacity:1"/></linearGradient></defs></svg>