<?xml version="1.0" encoding="UTF-8" standalone="no"?><!DOCTYPE svg PUBLIC "-//W3C//DTD SVG 1.1//EN" "http://www.w3.org/Graphics/SVG/1.1/DTD/svg11.dtd"><svg width="100%" height="100%" viewBox="0 0 191 227" version="1.1" xmlns="http://www.w3.org/2000/svg" xmlns:xlink="http://www.w3.org/1999/xlink" xml:space="preserve" xmlns:serif="http://www.serif.com/" style="fill-rule:evenodd;clip-rule:evenodd;stroke-linejoin:round;stroke-miterlimit:2;"><path id="shape-setas" d="M4.94,170.715l90.454,55.905l90.454,-55.905c4.891,-3.022 6.407,-9.446 3.385,-14.337c-3.023,-4.89 -9.447,-6.407 -14.338,-3.384l-79.501,49.135c0,0 -79.501,-49.135 -79.501,-49.135c-4.891,-3.023 -11.315,-1.506 -14.337,3.384c-3.023,4.891 -1.506,11.315 3.384,14.337Zm-0,-75.719l90.454,55.905l90.454,-55.905c4.891,-3.022 6.407,-9.446 3.385,-14.337c-3.023,-4.89 -9.447,-6.407 -14.338,-3.384l-79.501,49.135c0,0 -79.501,-49.135 -79.501,-49.135c-4.891,-3.023 -11.315,-1.506 -14.337,3.384c-3.023,4.891 -1.506,11.315 3.384,14.337Zm-0,-75.719l90.454,55.905l90.454,-55.905c4.891,-3.022 6.407,-9.447 3.385,-14.337c-3.023,-4.89 -9.447,-6.407 -14.338,-3.384l-79.501,49.135c0,0 -79.501,-49.135 -79.501,-49.135c-4.891,-3.023 -11.315,-1.506 -14.337,3.384c-3.023,4.89 -1.506,11.315 3.384,14.337Z" style="fill:#0e2139;"/></svg>