<?xml version="1.0" encoding="UTF-8" standalone="no"?><!DOCTYPE svg PUBLIC "-//W3C//DTD SVG 1.1//EN" "http://www.w3.org/Graphics/SVG/1.1/DTD/svg11.dtd"><svg width="100%" height="100%" viewBox="0 0 29375 1850" version="1.1" xmlns="http://www.w3.org/2000/svg" xmlns:xlink="http://www.w3.org/1999/xlink" xml:space="preserve" xmlns:serif="http://www.serif.com/" style="fill-rule:evenodd;clip-rule:evenodd;stroke-linejoin:round;stroke-miterlimit:2;"><path d="M0,1078.97l259.813,-38.035l220.604,-22.822l129.32,-15.214l340.285,15.214l73.287,23.144l65.573,-61.716l243.004,50.144l123.431,-11.572l61.715,0l135.003,-42.429l277.719,-11.572l96.431,0l96.43,-39.109l281.577,0l69.429,-0.521l111.86,0l50.143,-45.228l77.145,-0l81.001,-77.145l88.716,-7.714l46.287,-50.144l246.861,-15.429l108.002,-11.571l50.144,-34.715l57.858,15.429l189.004,3.857l57.858,34.715l73.287,-23.144l165.86,-11.571l57.858,-38.572l42.43,34.715l177.432,7.714l42.429,-34.715l65.573,-7.714l38.572,-42.43l138.859,11.572l42.43,-30.858l54.001,-15.429l57.858,-57.858l46.286,11.572l77.145,-7.715l34.715,-30.857l81.001,-3.857l46.287,-42.43l123.431,-7.714l65.572,-23.144l54.001,-23.143l50.763,-44.739l49.525,21.596l69.43,-7.715l46.286,-34.714l19.286,-27.001l30.858,-23.143l73.287,-0l54.001,-34.715l528.438,-7.715l34.715,30.858l185.146,3.857l57.859,-15.429l96.43,0l57.858,-30.857l165.86,-3.857l15.429,-42.43l119.574,0l65.572,-30.857l135.003,-3.858l46.287,42.43l196.717,-3.858l96.431,-61.715l69.43,69.43l61.715,11.572l57.858,-7.715l104.145,-3.857l61.715,-11.572l38.573,-46.286l65.572,-18.668l61.716,-16.047l11.571,-38.572l96.431,-3.858l3.857,-61.521l192.86,49.95l204.433,7.714l43.667,-32.664l79.764,24.95l57.858,19.286l65.572,54.001l42.43,27l293.458,-15.119l57.548,69.12l57.858,-23.143l15.429,30.858l77.145,23.143l38.262,41.501l89.026,-45.358l243.004,-0l54.001,-54.001l119.574,-0l50.144,-11.572l54.001,11.572l73.287,-11.572l73.287,11.572l308.577,-3.857l42.429,46.286l200.575,11.572l38.263,30.239l96.74,0.618l34.715,35.334l185.146,-0.619l34.715,-30.857l46.286,38.572l61.716,-3.857l15.429,-38.573l273.862,5.405l38.572,-47.834l54.001,-38.572l316.291,-7.714l46.287,-34.715l169.717,65.572l347.15,11.572l54.001,15.429l165.86,0.928l38.572,22.215l154.288,11.572l34.715,65.572l38.573,61.716l61.715,-19.286l154.289,-0l50.143,-23.144l27.001,23.144l135.002,-0l13.743,57.858l-23.144,54.001l54.001,27l158.146,0l34.715,42.43l73.287,3.857l27,34.715l57.859,3.857l46.286,42.429l219.861,-7.714l61.716,57.858l50.144,-15.429l92.573,-7.714l38.572,-34.715l42.429,0l42.43,3.857l57.858,73.287l108.002,-34.715l111.859,-3.857l42.429,-34.715l127.288,-7.714l43.408,-39.695l75.052,2.729l62.77,-57.312l126.906,-57.313l9.552,-21.833l25.927,5.458l17.74,2.729l19.104,12.282l9.479,19.25l95.593,38.062l283.833,-1.365l42.302,32.75l10.916,21.834l106.437,5.458l2.73,24.562l49.124,6.823l72.323,49.125l132.364,4.094l32.75,40.937l107.802,1.511l30.021,-43.813l289.29,1.365l21.834,39.573l54.583,-0l50.635,28.802l173.156,-4.24l20.104,40.937l184.582,1.365l32.75,35.479l95.521,6.823l63.843,54.802l409.666,-8.406l57.312,-43.667l24.562,2.729l17.667,9.552l42.375,10.917l133.729,-0l13.645,23.198l256.541,-4.094l62.771,-49.125l34.114,-39.573l201.958,-4.093l65.5,-61.406l45.031,21.833l255.176,1.364l27.292,-35.479l85.968,2.729l132.364,110.531l170.573,1.365l5.458,9.552l81.875,8.187l27.291,34.115l147.375,4.094l27.291,27.291l109.167,6.823l43.666,50.49l79.146,-0l43.666,-61.406l13.646,-25.927l46.396,-5.459l19.104,19.104l87.333,0l25.927,16.375l79.145,8.188l40.938,14.966l31.385,39.617l106.437,-5.458l62.771,-76.417l177.395,-1.364l32.75,-36.844l34.115,-0l17.739,-12.281l30.021,-1.365l19.104,39.573l25.708,16.521l117.573,-4.24l35.479,-42.302l13.646,-10.916l19.104,9.552l23.197,24.562l31.386,4.094l19.104,17.739l143.281,0l13.645,-17.739l38.209,-0l6.823,20.468l76.416,2.73l15.01,-16.375l73.688,-1.365l9.552,16.375l178.759,0l13.646,35.435l47.76,51.898l42.302,13.646l8.188,23.198l40.937,-2.729l19.104,-16.375l19.104,-5.459l20.469,-17.739l50.49,1.364l25.927,27.292l16.375,16.375l176.03,1.364l16.375,-15.01l30.021,0l9.552,13.646l206.051,-2.729l13.646,-23.198l21.833,5.458l19.104,21.833l201.958,-2.729l16.375,-19.104l98.25,-6.823l34.114,-13.645l84.604,-0l20.542,-21.761l36.625,24.563l90.208,-1.438l12.281,-19.104l70.958,1.365l13.646,-19.105l73.687,2.73l31.385,36.843l275.645,-2.729l23.198,-31.385l21.833,-19.992l50.49,-0.521l16.375,21.354l85.968,-7.664l24.563,-35.479l68.228,-0l24.563,35.479l27.291,1.364l4.094,-14.533l237.437,-0.521l10.917,-20.279l28.656,-1.437l10.916,21.716l122.812,0.521l13.646,-22.31l36.844,-2.729l3.875,24.518l83.458,0.521l8.187,15.898l32.75,1.365l16.375,20.468l10.917,16.375l51.854,1.365l24.635,-39.719l103.635,-1.219l23.198,32.75l28.656,5.459l25.927,30.02l12.281,9.552l262,2.73l28.656,23.197l292.02,2.73l16.375,21.833l20.468,15.01l23.198,6.823l55.948,9.552l31.385,-4.094l5.458,13.646l25.927,12.281l31.386,0l23.198,-2.729l10.916,-12.281l19.104,-8.187l15.011,-1.365l17.739,-6.823l8.261,-6.677l296.04,-1.51l23.198,27.291l20.469,15.011l19.104,13.791l62.77,-2.875l98.25,-2.729l17.74,-13.646l17.739,-19.104l12.281,-16.375l234.708,-2.729l12.281,20.469l36.844,4.093l27.291,-4.093l19.104,-10.917l17.74,-15.01l17.74,-19.104l13.645,-13.646l35.479,-2.729l12.282,9.552l19.104,17.739l35.479,0l12.281,-9.552l17.739,-12.281l32.75,-2.729l30.021,-0l15.01,-1.365l15.011,-2.729l13.646,-13.646l12.281,-15.01l10.916,-9.552l10.917,-12.281l53.219,-2.729l40.937,6.968l12.281,27.146l24.563,1.365l19.104,12.281l5.458,12.281l294.749,-5.458l15.01,-6.823l23.198,1.364l16.375,15.011l21.834,38.208l21.833,-2.729l19.104,9.552l24.562,9.552l13.646,23.198l13.646,8.26l77.781,-2.802l12.281,12.281l6.823,16.375l9.552,12.281l23.198,1.365l23.198,0l15.01,1.365l19.104,-16.375l35.479,-19.104l27.292,-4.094l19.104,4.094l10.917,12.281l21.833,12.281l31.385,-0l23.198,-9.552l5.458,-12.281l10.917,-9.552l8.187,-19.104l102.344,4.093l21.833,21.834l19.104,23.197l6.823,9.552l30.021,0l12.281,4.094l8.187,10.917l34.115,-0l25.927,-4.094l32.75,-46.396l10.916,-5.458l5.459,-9.552l20.468,6.823l38.209,-0l36.843,-1.365l60.042,4.094l20.468,9.552l19.105,27.292l20.468,20.468l12.281,13.646l46.396,1.365l30.021,-0l23.198,-1.365l17.739,16.375l9.406,15.083l11.063,14.938l24.562,8.187l8.188,-15.01l76.416,-4.094l87.333,1.365l57.313,-0l13.645,-1.365l17.74,-17.739l23.198,-17.74l19.104,-9.552l21.833,-19.104l129.635,-1.365l4.094,19.105l17.739,6.822l30.021,9.552l21.833,-1.364l25.927,-12.281l12.281,-9.552l17.74,-15.011l12.281,-20.323l49.125,-1.51l15.01,-13.646l45.032,0l185.582,-5.458l0,-19.104l45.031,-0l13.646,-17.74l10.917,-6.823l15.01,-16.375l12.281,-12.281l21.834,0l20.468,-2.729l10.917,-16.375l13.646,-13.646l32.75,-2.729l27.291,-1.364l12.281,-2.73l13.646,-13.645l23.198,-17.375l43.667,-1.729l36.843,-0l16.505,2.729l12.5,862.706l-29375,0l-0,-771.033Z"/></svg>